<svg width="48" height="42" viewBox="0 0 48 42" fill="none" xmlns="http://www.w3.org/2000/svg">
<path d="M19.2 6.29906C19.2059 6.9373 19.3817 7.56556 19.7133 8.13409C20.0449 8.70262 20.5232 9.1958 21.1104 9.57456L8.4 16.7681H4.7928C3.52167 16.7681 2.3026 17.2099 1.40378 17.9962C0.504954 18.7826 0 19.8491 0 20.9612V37.8069C0 38.919 0.504954 39.9855 1.40378 40.7719C2.3026 41.5582 3.52167 42 4.7928 42H43.1928C44.468 41.9994 45.6907 41.5559 46.5921 40.7668C47.4936 39.9778 48 38.9078 48 37.7922V20.9612C48 19.8491 47.495 18.7826 46.5962 17.9962C45.6974 17.2099 44.4783 16.7681 43.2072 16.7681H39.6288L26.904 9.56406C27.4871 9.18515 27.9618 8.6931 28.2908 8.12657C28.6197 7.56004 28.7941 6.93448 28.8 6.29906C28.7883 5.56713 28.5613 4.85018 28.141 4.21727C27.7206 3.58436 27.121 3.05683 26.4 2.6855V0H24V4.19937C24.4747 4.19937 24.9387 4.32251 25.3334 4.55323C25.728 4.78395 26.0357 5.11187 26.2173 5.49554C26.399 5.87921 26.4465 6.30138 26.3539 6.70868C26.2613 7.11598 26.0327 7.49011 25.6971 7.78376C25.3614 8.0774 24.9338 8.27738 24.4682 8.3584C24.0027 8.43941 23.5201 8.39783 23.0816 8.23891C22.643 8.07999 22.2682 7.81087 22.0045 7.46558C21.7408 7.12029 21.6 6.71433 21.6 6.29906H19.2ZM23.988 10.4438L24 10.4459L24.0408 10.4417L35.2128 16.7681H12.8208L23.988 10.4438ZM12 33.595C12 34.1518 11.7471 34.6859 11.2971 35.0797C10.847 35.4734 10.2365 35.6946 9.6 35.6946C8.96348 35.6946 8.35303 35.4734 7.90294 35.0797C7.45286 34.6859 7.2 34.1518 7.2 33.595V25.1962C7.2 24.6393 7.45286 24.1053 7.90294 23.7115C8.35303 23.3178 8.96348 23.0965 9.6 23.0965C10.2365 23.0965 10.847 23.3178 11.2971 23.7115C11.7471 24.1053 12 24.6393 12 25.1962V33.595ZM21.6 33.595C21.6 34.1518 21.3471 34.6859 20.8971 35.0797C20.447 35.4734 19.8365 35.6946 19.2 35.6946C18.5635 35.6946 17.953 35.4734 17.5029 35.0797C17.0529 34.6859 16.8 34.1518 16.8 33.595V25.1962C16.8 24.6393 17.0529 24.1053 17.5029 23.7115C17.953 23.3178 18.5635 23.0965 19.2 23.0965C19.8365 23.0965 20.447 23.3178 20.8971 23.7115C21.3471 24.1053 21.6 24.6393 21.6 25.1962V33.595ZM31.2 33.595C31.2 34.1518 30.9471 34.6859 30.4971 35.0797C30.047 35.4734 29.4365 35.6946 28.8 35.6946C28.1635 35.6946 27.553 35.4734 27.1029 35.0797C26.6529 34.6859 26.4 34.1518 26.4 33.595V25.1962C26.4 24.6393 26.6529 24.1053 27.1029 23.7115C27.553 23.3178 28.1635 23.0965 28.8 23.0965C29.4365 23.0965 30.047 23.3178 30.4971 23.7115C30.9471 24.1053 31.2 24.6393 31.2 25.1962V33.595ZM40.8 33.595C40.8 34.1518 40.5471 34.6859 40.0971 35.0797C39.647 35.4734 39.0365 35.6946 38.4 35.6946C37.7635 35.6946 37.153 35.4734 36.7029 35.0797C36.2529 34.6859 36 34.1518 36 33.595V25.1962C36 24.6393 36.2529 24.1053 36.7029 23.7115C37.153 23.3178 37.7635 23.0965 38.4 23.0965C39.0365 23.0965 39.647 23.3178 40.0971 23.7115C40.5471 24.1053 40.8 24.6393 40.8 25.1962V33.595Z" fill="#363637"/>
</svg>
