<svg width="42" height="42" viewBox="0 0 42 42" fill="none" xmlns="http://www.w3.org/2000/svg">
<path d="M21 0C9.40201 0 0 9.40201 0 21C0 32.598 9.40201 42 21 42C32.598 42 42 32.598 42 21C42 9.40201 32.598 0 21 0ZM20.2874 7.76219H21.7127V11.9637H20.2874V7.76219ZM14.458 9.02342L16.8677 12.4636L15.6988 13.2839L13.2891 9.84375L14.458 9.02342ZM27.542 9.02342L28.7109 9.84375L26.3012 13.2839L25.1323 12.4636L27.542 9.02342ZM21 13.1122C24.4914 13.1122 27.3215 15.2314 27.3215 17.8469L23.7301 28.7238H18.2699L14.6785 17.8469C14.6785 15.2314 17.5088 13.1122 21 13.1122ZM9.64635 14.3734L13.5941 15.8115L13.1045 17.1522L9.15929 15.7141L9.64635 14.3734ZM32.3536 14.3734L32.8407 15.7141L28.893 17.1522L28.4059 15.8115L32.3536 14.3734ZM13.4044 20.5078L13.7736 21.887L9.71558 22.9739L9.34643 21.5948L13.4044 20.5078ZM28.5956 20.5078L32.6536 21.5948L32.2844 22.9739L28.2264 21.887L28.5956 20.5078ZM18.1904 29.5184H23.8096V31.4077H18.1904V29.5184ZM18.1904 32.3485H23.8096V34.2378H18.1904V32.3485Z" fill="#1F7AC6"/>
</svg>
