<svg width="36" height="42" viewBox="0 0 36 42" fill="none" xmlns="http://www.w3.org/2000/svg">
<path d="M16.9221 0V6.6648H19.0781V0H16.9219H16.9221ZM8.11843 2.00287L6.35203 3.30148L9.99213 8.75959L11.7576 7.46095L8.11843 2.00287ZM27.8813 2.00287L24.2423 7.46099L26.008 8.75962L29.648 3.30148L27.8816 2.00287H27.8813ZM17.9996 8.48834C12.7254 8.48834 8.44987 11.8512 8.44987 16.0002L13.8756 33.2534H22.1246L27.5499 16.0002C27.5499 11.8513 23.2746 8.48834 18.0001 8.48834H17.9996ZM0.848831 10.4886L0.112198 12.617L6.07383 14.896L6.8132 12.7686L0.848698 10.4886H0.848831ZM35.1509 10.4886L29.1864 12.7687L29.9232 14.8965L35.8878 12.6171L35.1509 10.4886ZM6.5252 20.2188L0.395198 21.9452L0.951398 24.1303L7.0814 22.4064L6.5253 20.2188H6.5252ZM29.4745 20.2188L28.9187 22.4064L35.0487 24.13L35.6045 21.9449L29.4745 20.2188V20.2188ZM13.7553 34.5111V37.5101H22.2449V34.5116H13.7554L13.7553 34.5111ZM13.7553 39.001V42H22.2449V39.0015H13.7554L13.7553 39.001Z" fill="#363637"/>
</svg>
