<svg width="36" height="36" viewBox="0 0 36 36" fill="none" xmlns="http://www.w3.org/2000/svg">
<path d="M18 0.5C8.3505 0.5 0.5 8.3505 0.5 18C0.5 27.6495 8.3505 35.5 18 35.5C27.6495 35.5 35.5 27.6495 35.5 18C35.5 8.3505 27.6495 0.5 18 0.5ZM19.75 26.6013V28.5H16.25V26.61C12.1567 25.9678 11 23.1065 11 21.5H14.5C14.5192 21.7502 14.7782 23.25 18 23.25C20.415 23.25 21.5 22.2262 21.5 21.5C21.5 20.933 21.5 19.75 18 19.75C11.91 19.75 11 16.46 11 14.5C11 12.246 12.8007 9.978 16.25 9.39875V7.521H19.75V9.46175C22.7845 10.1792 23.95 12.7045 23.95 14.5H22.2L20.45 14.5315C20.4255 13.8665 20.0737 12.75 18 12.75C15.7268 12.75 14.5 13.653 14.5 14.5C14.5 15.1545 14.5 16.25 18 16.25C24.09 16.25 25 19.54 25 21.5C25 23.754 23.1992 26.022 19.75 26.6013Z" fill="#363637"/>
</svg>
