<svg width="50" height="50" viewBox="0 0 50 50" fill="none" xmlns="http://www.w3.org/2000/svg">
<path d="M10.5 49.25H2.75C2.06486 49.25 1.40778 48.9778 0.923308 48.4933C0.438839 48.0089 0.166667 47.3518 0.166667 46.6666V26C0.166667 25.3148 0.438839 24.6577 0.923308 24.1733C1.40778 23.6888 2.06486 23.4166 2.75 23.4166H10.5C11.1851 23.4166 11.8422 23.6888 12.3267 24.1733C12.8112 24.6577 13.0833 25.3148 13.0833 26V46.6666C13.0833 47.3518 12.8112 48.0089 12.3267 48.4933C11.8422 48.9778 11.1851 49.25 10.5 49.25ZM28.5833 49.25H20.8333C20.1482 49.25 19.4911 48.9778 19.0066 48.4933C18.5222 48.0089 18.25 47.3518 18.25 46.6666V2.74996C18.25 2.06482 18.5222 1.40774 19.0066 0.923267C19.4911 0.438798 20.1482 0.166626 20.8333 0.166626H28.5833C29.2685 0.166626 29.9256 0.438798 30.41 0.923267C30.8945 1.40774 31.1667 2.06482 31.1667 2.74996V46.6666C31.1667 47.3518 30.8945 48.0089 30.41 48.4933C29.9256 48.9778 29.2685 49.25 28.5833 49.25ZM46.6667 49.25H38.9167C38.2315 49.25 37.5744 48.9778 37.09 48.4933C36.6055 48.0089 36.3333 47.3518 36.3333 46.6666V18.25C36.3333 17.5648 36.6055 16.9077 37.09 16.4233C37.5744 15.9388 38.2315 15.6666 38.9167 15.6666H46.6667C47.3518 15.6666 48.0089 15.9388 48.4934 16.4233C48.9778 16.9077 49.25 17.5648 49.25 18.25V46.6666C49.25 47.3518 48.9778 48.0089 48.4934 48.4933C48.0089 48.9778 47.3518 49.25 46.6667 49.25Z" fill="#363637"/>
</svg>
