<svg width="58" height="58" viewBox="0 0 58 58" fill="none" xmlns="http://www.w3.org/2000/svg">
<path d="M31.4319 7.4646C31.008 7.4646 30.6634 7.80912 30.6634 8.23368C30.6634 8.27312 30.6803 8.30734 30.6861 8.34562H30.6634V26.5797C30.6634 27.0042 31.008 27.3487 31.4319 27.3487H49.6654V27.3261C49.7037 27.3319 49.7379 27.3487 49.7779 27.3487C50.2019 27.3487 50.5464 27.0042 50.5464 26.5797C50.4374 16.0701 41.9415 7.57422 31.4319 7.4646V7.4646Z" fill="white"/>
<path d="M46.1013 31.0068C46.1013 30.5823 45.7574 30.2377 45.3328 30.2377H28.5714C28.3675 30.2376 28.172 30.1565 28.0279 30.0123C27.8838 29.8681 27.8029 29.6725 27.8029 29.4687V12.7687H27.7803C27.7861 12.7304 27.8029 12.6962 27.8029 12.6568C27.8029 12.2316 27.4584 11.8877 27.0338 11.8877C27.0152 11.8877 27.0002 11.897 26.9822 11.8981V11.8929C26.9137 11.8923 26.8459 11.8877 26.7774 11.8877C16.1054 11.8877 7.45358 20.5396 7.45358 31.2116C7.45358 41.8836 16.1054 50.5354 26.7774 50.5354C37.4494 50.5354 46.1013 41.8836 46.1013 31.2116C46.1013 31.1501 46.0984 31.0892 46.0972 31.0271C46.0972 31.0196 46.1013 31.0138 46.1013 31.0068Z" fill="white"/>
</svg>
