<svg width="34" height="34" viewBox="0 0 34 34" fill="none" xmlns="http://www.w3.org/2000/svg">
<path d="M23.6667 33.6667H3.66666C2.78261 33.6667 1.93476 33.3155 1.30964 32.6904C0.684518 32.0653 0.333328 31.2174 0.333328 30.3334V10.3334H3.66666V30.3334H23.6667V33.6667ZM30.3333 27H10.3333C9.44927 27 8.60143 26.6489 7.97631 26.0237C7.35118 25.3986 7 24.5508 7 23.6667V3.66671C7 2.78265 7.35118 1.93481 7.97631 1.30968C8.60143 0.684563 9.44927 0.333374 10.3333 0.333374H30.3333C31.2174 0.333374 32.0652 0.684563 32.6904 1.30968C33.3155 1.93481 33.6667 2.78265 33.6667 3.66671V23.6667C33.6667 24.5508 33.3155 25.3986 32.6904 26.0237C32.0652 26.6489 31.2174 27 30.3333 27ZM10.3333 3.66671V23.6667H30.3333V3.66671H10.3333ZM18.6667 19.6017L12.4883 13.4217L14.845 11.065L18.6667 14.8884L25.8217 7.73337L28.1783 10.09L18.6667 19.6V19.6017Z" fill="white"/>
</svg>
