<svg width="24" height="35" viewBox="0 0 24 35" fill="none" xmlns="http://www.w3.org/2000/svg">
<path d="M2.59459 0H21.4054C22.8365 0 24 1.12109 24 2.5V32.5C24 33.8789 22.8365 35 21.4054 35H2.59459C1.16352 35 1.90735e-06 33.8789 1.90735e-06 32.5V2.5C1.90735e-06 1.12109 1.16352 0 2.59459 0ZM12 29.7656C12.8959 29.7656 13.6216 29.0664 13.6216 28.2031C13.6216 27.3398 12.8959 26.6406 12 26.6406C11.1041 26.6406 10.3784 27.3398 10.3784 28.2031C10.3784 29.0664 11.1041 29.7656 12 29.7656Z" fill="#1F7AC6"/>
</svg>
