<svg width="45" height="33" viewBox="0 0 45 33" fill="none" xmlns="http://www.w3.org/2000/svg">
<path d="M7.5 3.66667V22H16.875V14.6667C16.875 13.6942 17.2701 12.7616 17.9734 12.0739C18.6766 11.3863 19.6304 11 20.625 11H30C30.9946 11 31.9484 11.3863 32.6516 12.0739C33.3549 12.7616 33.75 13.6942 33.75 14.6667V22H37.5V3.66667H7.5ZM0 29.3333V25.6667H7.5C6.50544 25.6667 5.55161 25.2804 4.84835 24.5927C4.14509 23.9051 3.75 22.9725 3.75 22V3.66667C3.75 2.69421 4.14509 1.76158 4.84835 1.07394C5.55161 0.386308 6.50544 0 7.5 0H37.5C38.4946 0 39.4484 0.386308 40.1516 1.07394C40.8549 1.76158 41.25 2.69421 41.25 3.66667V22C41.25 22.9725 40.8549 23.9051 40.1516 24.5927C39.4484 25.2804 38.4946 25.6667 37.5 25.6667H45V29.3333H33.75C33.75 30.3058 33.3549 31.2384 32.6516 31.9261C31.9484 32.6137 30.9946 33 30 33H20.625C19.6304 33 18.6766 32.6137 17.9734 31.9261C17.2701 31.2384 16.875 30.3058 16.875 29.3333H0ZM21.5625 29.3333C21.3139 29.3333 21.0754 29.4299 20.8996 29.6018C20.7238 29.7737 20.625 30.0069 20.625 30.25C20.625 30.4931 20.7238 30.7263 20.8996 30.8982C21.0754 31.0701 21.3139 31.1667 21.5625 31.1667C21.8111 31.1667 22.0496 31.0701 22.2254 30.8982C22.4012 30.7263 22.5 30.4931 22.5 30.25C22.5 30.0069 22.4012 29.7737 22.2254 29.6018C22.0496 29.4299 21.8111 29.3333 21.5625 29.3333ZM29.0625 29.3333C28.8139 29.3333 28.5754 29.4299 28.3996 29.6018C28.2238 29.7737 28.125 30.0069 28.125 30.25C28.125 30.4931 28.2238 30.7263 28.3996 30.8982C28.5754 31.0701 28.8139 31.1667 29.0625 31.1667C29.3111 31.1667 29.5496 31.0701 29.7254 30.8982C29.9012 30.7263 30 30.4931 30 30.25C30 30.0069 29.9012 29.7737 29.7254 29.6018C29.5496 29.4299 29.3111 29.3333 29.0625 29.3333ZM24.375 29.3333V31.1667H26.25V29.3333H24.375ZM20.625 14.6667V27.5H30V14.6667H20.625Z" fill="#1F7AC6"/>
</svg>
