<svg width="43" height="31" viewBox="0 0 43 31" fill="none" xmlns="http://www.w3.org/2000/svg">
<path d="M12.0938 15.5001C13.8757 15.5001 15.5846 14.8197 16.8446 13.6086C18.1046 12.3974 18.8125 10.7547 18.8125 9.04188C18.8125 7.32904 18.1046 5.68636 16.8446 4.4752C15.5846 3.26404 13.8757 2.58362 12.0938 2.58362C10.3118 2.58362 8.60289 3.26404 7.34288 4.4752C6.08287 5.68636 5.375 7.32904 5.375 9.04188C5.375 10.7547 6.08287 12.3974 7.34288 13.6086C8.60289 14.8197 10.3118 15.5001 12.0938 15.5001V15.5001Z" fill="#1F7AC6"/>
<path d="M18.8125 31C18.8125 31 16.125 31 16.125 28.4167C16.125 25.8333 18.8125 18.0833 29.5625 18.0833C40.3125 18.0833 43 25.8333 43 28.4167C43 31 40.3125 31 40.3125 31H18.8125ZM29.5625 15.5C31.7008 15.5 33.7515 14.6835 35.2635 13.2301C36.7756 11.7767 37.625 9.80543 37.625 7.75C37.625 5.69457 36.7756 3.72333 35.2635 2.26992C33.7515 0.816516 31.7008 0 29.5625 0C27.4242 0 25.3735 0.816516 23.8615 2.26992C22.3494 3.72333 21.5 5.69457 21.5 7.75C21.5 9.80543 22.3494 11.7767 23.8615 13.2301C25.3735 14.6835 27.4242 15.5 29.5625 15.5V15.5Z" fill="#1F7AC6"/>
<path fill-rule="evenodd" clip-rule="evenodd" d="M14.018 31C13.6196 30.1935 13.4209 29.3093 13.4375 28.4167C13.4375 24.9163 15.265 21.3125 18.6405 18.8067C16.9557 18.3076 15.2004 18.0636 13.4375 18.0833C2.6875 18.0833 0 25.8333 0 28.4167C0 31 2.6875 31 2.6875 31H14.018Z" fill="#1F7AC6"/>
</svg>
