<svg width="46" height="46" viewBox="0 0 46 46" fill="none" xmlns="http://www.w3.org/2000/svg">
<path d="M0.60575 29.003C0.681348 29.2884 0.812723 29.5561 0.992295 29.7905C1.17187 30.0249 1.39608 30.2214 1.652 30.3687L5.9495 32.8527V37.8005C5.9495 38.3972 6.18655 38.9695 6.60851 39.3915C7.03047 39.8134 7.60276 40.0505 8.1995 40.0505H13.1473L15.6313 44.348C15.8304 44.6885 16.1149 44.9713 16.4565 45.1686C16.7981 45.3658 17.1853 45.4707 17.5798 45.473C17.9712 45.473 18.3605 45.3695 18.707 45.1692L23 42.6875L27.2975 45.1715C27.8141 45.4694 28.4279 45.5503 29.004 45.3963C29.5802 45.2424 30.0718 44.8662 30.371 44.3502L32.8527 40.0527H37.8005C38.3972 40.0527 38.9695 39.8157 39.3915 39.3937C39.8134 38.9718 40.0505 38.3995 40.0505 37.8027V32.855L44.348 30.371C44.604 30.2231 44.8283 30.0261 45.0081 29.7915C45.188 29.5568 45.3198 29.289 45.3961 29.0033C45.4723 28.7177 45.4916 28.4198 45.4526 28.1267C45.4137 27.8336 45.3174 27.5511 45.1693 27.2952L42.6875 23L45.1715 18.707C45.47 18.1905 45.5512 17.5766 45.3972 17.0002C45.2432 16.4238 44.8666 15.9322 44.3503 15.6335L40.0527 13.1495V8.19949C40.0527 7.60275 39.8157 7.03046 39.3937 6.6085C38.9718 6.18654 38.3995 5.94949 37.8027 5.94949H32.855L30.3733 1.65424C30.0735 1.1388 29.5829 0.762128 29.0075 0.60574C28.7221 0.528376 28.4242 0.508427 28.1311 0.54705C27.8379 0.585673 27.5554 0.6821 27.2998 0.830741L23 3.31249L18.7048 0.82849C18.1882 0.529948 17.5743 0.448753 16.998 0.602757C16.4216 0.756762 15.93 1.13336 15.6313 1.64974L13.1473 5.94724H8.1995C7.60276 5.94724 7.03047 6.18429 6.60851 6.60625C6.18655 7.02821 5.9495 7.6005 5.9495 8.19724V13.145L1.652 15.629C1.13577 15.929 0.759479 16.4214 0.605551 16.9983C0.451623 17.5753 0.532601 18.1897 0.83075 18.707L3.31475 23L0.83075 27.293C0.533722 27.8112 0.452881 28.4256 0.60575 29.003ZM23 25.25C15.17 25.25 14 21.0222 14 18.5C14 15.6042 16.3153 12.6882 20.75 11.9412V9.52699H25.25V12.0222C29.1515 12.9447 30.65 16.1915 30.65 18.5H28.4L26.15 18.5405C26.1185 17.6855 25.6663 16.25 23 16.25C20.0772 16.25 18.5 17.4087 18.5 18.5C18.5 19.3415 18.5 20.75 23 20.75C30.83 20.75 32 24.9777 32 27.5C32 30.3957 29.6847 33.3117 25.25 34.0587V36.5H20.75V34.07C15.4873 33.2442 14 29.5632 14 27.5H18.5C18.5247 27.8217 18.8577 29.75 23 29.75C26.105 29.75 27.5 28.4337 27.5 27.5C27.5 26.7687 27.5 25.25 23 25.25Z" fill="#1F7AC6"/>
</svg>
